<svg version="1.1" id="Layer_1" xmlns="http://www.w3.org/2000/svg" xmlns:xlink="http://www.w3.org/1999/xlink" x="0px" y="0px"
	 width="100%" viewBox="0 0 2000 2000" enable-background="new 0 0 2000 2000" xml:space="preserve">
<path fill="#FFFFFF" opacity="1.000000" stroke="none" 
	d="
M1078.000000,2001.000000 
	C718.666687,2001.000000 359.833344,2001.000000 1.000000,2001.000000 
	C1.000000,1334.333374 1.000000,667.666687 1.000000,1.000000 
	C667.666687,1.000000 1334.333374,1.000000 2001.000000,1.000000 
	C2001.000000,667.666687 2001.000000,1334.333374 2001.000000,2001.000000 
	C1693.500000,2001.000000 1386.000000,2001.000000 1078.000000,2001.000000 
M1372.959106,1233.988281 
	C1372.959106,1233.988281 1373.003906,1234.115845 1373.733643,1234.374634 
	C1399.288208,1219.208618 1425.338501,1204.810547 1450.284180,1188.701660 
	C1490.451904,1162.762939 1518.641968,1127.082886 1533.802734,1081.043457 
	C1542.844482,1082.028809 1551.882690,1083.775391 1560.928711,1083.815186 
	C1573.509766,1083.870728 1586.254639,1083.640625 1598.632935,1081.670166 
	C1609.299561,1079.972290 1619.694092,1076.056030 1629.906006,1072.297607 
	C1633.298584,1071.048950 1637.091797,1067.758179 1638.336914,1064.497925 
	C1640.520386,1058.779907 1641.115967,1052.396973 1641.951538,1046.234985 
	C1643.640015,1033.780273 1645.053101,1021.288208 1646.562378,1008.809387 
	C1648.052002,996.493164 1649.536621,984.176331 1650.993408,971.856140 
	C1652.469849,959.370300 1653.889526,946.877808 1655.371338,934.392578 
	C1656.891724,921.582642 1658.466797,908.779175 1659.999634,895.970703 
	C1661.139771,886.443481 1662.238647,876.911316 1663.377441,867.383972 
	C1664.908569,854.575500 1666.455200,841.768921 1668.005005,828.962646 
	C1669.495483,816.647461 1671.044922,804.339172 1672.481812,792.017761 
	C1673.688232,781.671997 1674.769775,771.311768 1675.989136,760.222290 
	C1677.430664,755.764526 1676.170044,752.152222 1671.883667,750.370789 
	C1664.580688,747.335693 1657.283569,743.955566 1649.647827,742.112854 
	C1623.285400,735.750854 1596.321533,734.530640 1569.333496,734.102783 
	C1562.058838,733.987427 1554.771851,734.644836 1547.273804,734.042603 
	C1546.855469,719.083374 1546.669312,704.112549 1545.926880,689.169434 
	C1545.516602,680.910400 1542.301758,673.997925 1533.680298,670.943604 
	C1516.319214,664.793213 1499.005005,658.508118 1481.607666,652.462463 
	C1475.968506,650.502869 1470.575317,653.183105 1469.016235,658.163330 
	C1467.387329,663.366882 1469.943848,668.017578 1475.762573,670.129150 
	C1491.675293,675.903625 1507.585449,681.687744 1523.561157,687.283691 
	C1526.136963,688.185974 1527.377686,689.383911 1527.421021,692.110046 
	C1527.653687,706.730591 1527.962524,721.349915 1527.333984,735.989380 
	C1514.752808,737.870422 1502.040039,739.146667 1489.635864,741.842407 
	C1481.173950,743.681335 1473.004639,747.176025 1464.975464,750.571533 
	C1460.737793,752.363647 1459.178955,756.291199 1461.035278,761.825806 
	C1462.053955,771.032593 1463.051392,780.241760 1464.097290,789.445496 
	C1465.105957,798.321838 1466.126343,807.197083 1467.210449,816.064453 
	C1468.775269,828.866028 1470.442505,841.655151 1471.991455,854.458618 
	C1473.481567,866.776489 1474.835449,879.110962 1476.325317,891.428894 
	C1477.834229,903.905090 1479.489990,916.363647 1480.983032,928.841675 
	C1482.476929,941.326538 1483.772705,953.835266 1485.293945,966.316650 
	C1487.114258,981.253479 1489.182251,996.160461 1490.956787,1011.102539 
	C1492.771118,1026.379517 1494.046509,1041.727417 1496.187744,1056.955688 
	C1497.168579,1063.931274 1500.277954,1070.134766 1507.745239,1072.978516 
	C1511.727173,1074.494873 1515.480469,1076.611450 1519.210938,1079.171143 
	C1509.639282,1107.914673 1494.749268,1133.365234 1472.384155,1154.078003 
	C1456.441162,1168.843140 1438.638794,1181.136230 1420.011108,1192.221802 
	C1408.475220,1199.086792 1396.701660,1205.552368 1384.744263,1211.454712 
	C1385.029053,1210.677246 1385.250977,1209.869507 1385.607666,1209.126587 
	C1412.205444,1153.718872 1427.369995,1095.263672 1431.720337,1034.035400 
	C1434.746216,991.446289 1431.933594,949.114563 1423.571411,907.263977 
	C1405.512817,816.883850 1365.166382,737.690430 1301.888428,670.696655 
	C1227.086060,591.501831 1135.807495,542.477905 1028.086182,523.704346 
	C1030.671265,509.643188 1033.864868,495.662415 1035.734863,481.506775 
	C1043.257446,424.561615 1042.701416,367.490875 1036.727051,310.473969 
	C1031.082275,256.604980 1018.380371,204.325760 998.801636,153.826889 
	C993.232666,139.462952 986.414612,125.539833 979.453430,111.776672 
	C975.737427,104.429703 971.380432,103.264618 964.666809,106.767509 
	C949.043274,114.919266 935.217163,125.556122 923.247620,138.504288 
	C918.478699,143.663116 917.656311,149.734421 920.653442,156.106140 
	C922.559753,160.158707 924.582397,164.186646 926.916504,168.003220 
	C948.375977,203.092133 960.086121,241.797607 968.462769,281.317841 
	C956.625488,273.313690 945.310608,264.365784 932.858215,257.472931 
	C885.362183,231.182343 834.550415,223.005096 781.330627,233.527710 
	C725.214050,244.623077 679.558777,273.323425 644.800537,318.885468 
	C627.794678,341.177124 615.237183,365.778168 608.086182,393.701965 
	C612.368774,397.632172 616.454346,401.805817 620.963989,405.455597 
	C675.680115,449.739197 738.051819,466.583588 807.050964,453.473450 
	C872.578979,441.022888 923.136292,405.144806 957.963562,348.000885 
	C964.810486,336.766510 969.977722,324.508514 976.086365,313.567993 
	C980.369690,344.315796 986.334473,374.945953 988.496582,405.842194 
	C991.010620,441.767303 990.204102,477.925415 990.789490,513.983154 
	C990.821350,515.944580 990.399902,517.913330 989.343018,519.775757 
	C985.235291,519.501526 981.127625,519.227234 976.107666,518.771851 
	C971.344116,518.520996 966.566772,517.902771 961.819458,518.082153 
	C939.884277,518.910950 917.907288,519.334167 896.039368,521.080078 
	C863.503296,523.677979 831.853333,531.152588 800.823425,541.126160 
	C736.320679,561.858459 678.685425,594.815247 628.062195,639.765503 
	C588.680176,674.734253 555.843262,715.139343 529.673828,760.953064 
	C491.355042,828.036133 470.235138,900.174072 466.322205,977.225647 
	C464.869446,1005.832581 466.127228,1034.439209 469.820923,1062.950317 
	C474.379608,1098.138550 482.384491,1132.450439 494.695526,1165.677856 
	C500.620819,1181.670166 507.838379,1197.183838 513.691528,1212.568115 
	C487.750427,1198.284058 462.420288,1183.052856 438.928162,1164.914551 
	C407.465149,1140.622070 388.170441,1108.300415 376.620331,1070.848145 
	C375.256317,1066.425171 376.566803,1065.348633 381.156830,1064.372437 
	C384.747955,1063.608643 388.699402,1062.322510 391.411835,1060.005493 
	C408.450287,1045.451050 407.785522,1008.982483 390.165741,994.965698 
	C386.990234,992.439514 382.391418,990.630920 378.394196,990.521667 
	C374.670044,990.419922 372.807068,989.143799 370.635406,986.695068 
	C365.136627,980.494934 358.748413,975.406921 350.313934,973.952209 
	C337.342316,971.714905 326.007904,979.801025 321.035156,994.791321 
	C315.588196,1011.211121 317.233521,1027.437012 323.903595,1043.011475 
	C331.193298,1060.032715 341.657166,1073.652100 362.806000,1073.085693 
	C362.957031,1073.378784 363.144073,1073.659180 363.252014,1073.967163 
	C363.526123,1074.749512 363.767853,1075.543457 364.017242,1076.334351 
	C377.132446,1117.930054 399.735596,1152.857910 435.176575,1179.092651 
	C463.586639,1200.122803 494.099426,1217.650513 525.436218,1235.028687 
	C526.427063,1236.335938 527.578003,1237.551880 528.385254,1238.964111 
	C545.186218,1268.360474 564.777954,1295.746704 587.218323,1321.108398 
	C620.995728,1359.283325 659.813843,1391.334839 703.667908,1417.306274 
	C739.378235,1438.454834 777.290283,1454.482544 817.025146,1467.083008 
	C815.989197,1489.659424 819.020569,1511.845093 823.718140,1533.665405 
	C810.562622,1535.139404 797.656067,1536.244263 784.859863,1538.107422 
	C769.761047,1540.306274 754.543884,1542.206665 740.505737,1548.959961 
	C724.684265,1556.571045 717.605591,1571.077148 721.655029,1588.088867 
	C727.405823,1612.248169 751.776917,1627.896606 778.278381,1624.607178 
	C791.286194,1622.992798 802.875122,1617.813843 813.723389,1610.832642 
	C829.530823,1600.660034 843.995239,1588.911499 853.288696,1572.191528 
	C855.758545,1567.747925 857.310608,1562.136230 857.250366,1557.084961 
	C857.134338,1547.354736 850.647339,1541.681396 842.146606,1537.911987 
	C840.487488,1537.176270 838.495483,1535.436401 838.122314,1533.821289 
	C833.279541,1512.857422 829.953369,1491.693726 831.731018,1469.980469 
	C854.190063,1473.954224 876.516418,1479.226196 899.145203,1481.538452 
	C922.029907,1483.877075 945.213196,1483.320557 968.268250,1483.932983 
	C971.219666,1484.011230 974.187012,1483.490845 978.050659,1483.389038 
	C995.488770,1481.329102 1012.979309,1479.627930 1030.347412,1477.089111 
	C1042.942993,1475.248169 1055.376587,1472.297974 1067.948853,1470.807739 
	C1068.859619,1492.124023 1065.351807,1512.952271 1060.807495,1533.640503 
	C1060.463257,1535.207031 1058.810059,1537.029663 1057.302612,1537.713867 
	C1041.151123,1545.044434 1036.930542,1557.090820 1045.495850,1572.562744 
	C1052.330200,1584.907959 1062.539795,1594.290039 1073.483643,1602.793213 
	C1087.398682,1613.604736 1102.400879,1622.322510 1120.387695,1624.590454 
	C1145.838501,1627.799316 1169.821411,1613.345215 1176.514771,1590.608765 
	C1181.609497,1573.302979 1175.794312,1558.720703 1159.990601,1550.083496 
	C1145.675293,1542.259888 1129.705811,1540.324463 1113.918457,1538.096191 
	C1101.119019,1536.289673 1088.225464,1535.150879 1075.123535,1533.687988 
	C1079.658691,1511.508057 1083.122559,1489.019775 1082.396484,1465.740356 
	C1123.922607,1453.548340 1163.294434,1436.479370 1200.312744,1413.985718 
	C1244.802490,1386.952271 1283.760132,1353.479614 1317.620972,1313.986328 
	C1338.604004,1289.513184 1356.588379,1262.981689 1372.898315,1234.772705 
	C1372.959473,1234.492188 1373.020630,1234.211670 1372.959106,1233.988281 
z"/>
<path fill="#FC911F" opacity="1.000000" stroke="none" 
	d="
M1067.882324,1469.842285 
	C1055.376587,1472.297974 1042.942993,1475.248169 1030.347412,1477.089111 
	C1012.979309,1479.627930 995.488770,1481.329102 977.321655,1482.986816 
	C966.763000,1481.405518 956.928833,1480.262695 947.104492,1479.040283 
	C919.403137,1475.593750 892.432922,1468.902466 865.893005,1460.422485 
	C831.556274,1449.451294 799.035339,1434.455444 768.053833,1416.038086 
	C739.572388,1399.107056 713.039551,1379.521362 688.758240,1357.036255 
	C676.811279,1345.972900 665.355164,1334.257324 654.704407,1321.947998 
	C641.924561,1307.177979 629.499756,1291.983887 618.229431,1276.048218 
	C591.587952,1238.378418 571.172180,1197.422607 556.759644,1153.552490 
	C548.890320,1129.599243 542.044800,1105.326782 538.987732,1080.252563 
	C536.147339,1056.955811 533.164978,1033.577759 532.350281,1010.162415 
	C531.661011,990.351990 533.102966,970.342285 535.220825,950.594421 
	C537.348572,930.753662 540.904236,911.011414 544.867004,891.435059 
	C550.380188,864.199951 559.001343,837.758362 570.550537,812.539551 
	C580.632996,790.523621 591.482727,768.691223 604.055115,748.032410 
	C615.734253,728.841309 629.799866,711.051453 643.429138,693.111267 
	C659.783203,671.584412 679.304443,652.897522 699.611816,635.238220 
	C718.872864,618.488770 739.543335,603.443848 761.363525,590.020508 
	C790.921875,571.836853 821.872742,556.584167 854.673523,545.304016 
	C890.166260,533.098145 926.466492,524.233215 963.981201,520.917664 
	C968.351135,520.531433 972.674805,519.620605 977.019897,518.952942 
	C981.127625,519.227234 985.235291,519.501526 989.808289,520.306030 
	C990.187500,533.550354 990.101440,546.264465 989.565369,558.983521 
	C985.659424,559.323669 982.202271,559.647339 978.747681,559.995850 
	C964.190063,561.464233 951.370178,566.657898 941.635620,577.956665 
	C937.489685,582.768738 935.839844,588.502258 936.793884,594.977417 
	C938.234802,604.756958 944.439209,610.860718 952.349426,615.667603 
	C965.798706,623.840454 980.591309,625.861816 995.998047,625.015930 
	C1012.238647,624.124268 1026.912598,619.708191 1038.349609,607.233521 
	C1044.920776,600.066223 1046.264893,588.582825 1040.973511,580.474365 
	C1034.935303,571.221497 1025.804199,566.379272 1015.847046,562.495178 
	C1020.014282,549.552856 1024.090576,536.973083 1028.166992,524.393250 
	C1135.807495,542.477905 1227.086060,591.501831 1301.888428,670.696655 
	C1365.166382,737.690430 1405.512817,816.883850 1423.571411,907.263977 
	C1431.933594,949.114563 1434.746216,991.446289 1431.720337,1034.035400 
	C1427.369995,1095.263672 1412.205444,1153.718872 1385.607666,1209.126587 
	C1385.250977,1209.869507 1385.029053,1210.677246 1384.876709,1211.772461 
	C1385.009033,1212.090088 1385.112305,1212.051025 1384.805908,1211.986816 
	C1384.338013,1212.294434 1384.176514,1212.666382 1383.887451,1213.355835 
	C1380.174683,1220.487549 1376.589233,1227.301636 1373.003906,1234.115845 
	C1373.003906,1234.115845 1372.959106,1233.988281 1372.906494,1234.129761 
	C1372.642334,1234.448120 1372.479370,1234.661987 1372.365112,1234.912964 
	C1356.588379,1262.981689 1338.604004,1289.513184 1317.620972,1313.986328 
	C1283.760132,1353.479614 1244.802490,1386.952271 1200.312744,1413.985718 
	C1163.294434,1436.479370 1123.922607,1453.548340 1081.667725,1465.941895 
	C1076.586792,1467.376343 1072.234619,1468.609253 1067.882324,1469.842285 
M1154.786377,1067.069458 
	C1160.179443,1058.145874 1161.735596,1048.248413 1161.594604,1037.595825 
	C1170.941650,1037.595825 1179.741577,1037.628174 1188.541260,1037.583618 
	C1193.752197,1037.557251 1196.740234,1035.304932 1196.751831,1031.557617 
	C1196.763428,1027.807007 1193.723755,1025.446533 1188.625000,1025.417480 
	C1180.129395,1025.369019 1171.624756,1025.184326 1163.141235,1025.508667 
	C1159.589111,1025.644531 1157.894165,1024.519165 1156.479614,1021.336365 
	C1155.330811,1018.751343 1155.088013,1017.041382 1157.070312,1014.772827 
	C1160.351074,1011.018127 1163.264038,1006.939575 1166.290039,1002.965515 
	C1170.525024,997.403320 1174.833008,991.891174 1178.889282,986.200439 
	C1181.015259,983.217651 1180.635254,980.000183 1177.628296,977.817078 
	C1174.686646,975.681396 1171.671631,976.093933 1169.286377,979.076416 
	C1168.350830,980.246155 1167.474487,981.462952 1166.562744,982.651917 
	C1160.116211,991.058105 1153.667480,999.462769 1147.130249,1007.983948 
	C1134.876709,997.316284 1121.461060,992.299316 1105.743042,994.891846 
	C1087.240723,997.943665 1074.250122,1008.341614 1067.757690,1025.709839 
	C1061.255005,1043.105713 1064.447144,1059.439819 1076.298950,1073.904053 
	C1084.296753,1083.664673 1095.126831,1088.342285 1106.800659,1091.606079 
	C1098.308472,1104.826660 1093.596436,1118.778809 1095.826416,1134.947510 
	C1100.497192,1168.813110 1133.467407,1190.762085 1164.312134,1185.061401 
	C1193.751953,1179.620483 1214.212402,1155.272217 1213.780151,1125.151978 
	C1213.557861,1109.653442 1207.272827,1096.015381 1196.305664,1084.965698 
	C1184.872803,1073.446533 1170.593506,1068.279663 1154.786377,1067.069458 
M748.073669,1067.966553 
	C744.410889,1067.996826 740.685913,1067.600342 737.094971,1068.123535 
	C700.971252,1073.387329 680.703918,1105.588257 685.933350,1136.220337 
	C690.820251,1164.845459 715.248718,1185.882935 744.070007,1186.014404 
	C763.574585,1186.103516 779.023926,1177.769409 791.175110,1163.064697 
	C799.978394,1152.411255 803.663635,1139.563110 803.720459,1126.032471 
	C803.773987,1113.297852 799.181702,1101.671631 792.815796,1090.980225 
	C814.535828,1089.438232 832.149658,1074.983032 837.520813,1054.291992 
	C842.652466,1034.523315 834.582458,1013.536133 816.981262,1002.081299 
	C800.442078,991.317505 777.175232,989.880371 756.466248,1007.847534 
	C755.740723,1006.973877 754.985474,1006.127502 754.299316,1005.228271 
	C747.837280,996.760132 741.357544,988.305115 734.948181,979.797180 
	C732.453918,976.486206 729.356873,975.354797 725.935608,977.820923 
	C722.411316,980.361450 722.849548,983.745178 725.194336,987.020935 
	C725.872131,987.967834 726.597778,988.880554 727.303833,989.807190 
	C734.436401,999.167114 741.569336,1008.526733 748.184448,1017.207031 
	C747.526855,1025.075073 742.932434,1025.883667 736.957825,1025.506348 
	C729.990784,1025.066406 722.974670,1025.393311 715.979858,1025.406738 
	C709.870911,1025.418457 706.973450,1027.395142 706.945679,1031.530029 
	C706.918030,1035.642334 709.794556,1037.574585 715.996277,1037.594604 
	C719.160583,1037.604736 722.324951,1037.596313 725.489258,1037.596313 
	C730.910034,1037.596313 736.330872,1037.596313 742.138611,1037.596313 
	C741.445129,1048.848877 744.041077,1058.680908 748.073669,1067.966553 
M977.053528,1063.306274 
	C981.433655,1066.328491 985.952454,1069.175415 990.116272,1072.470947 
	C991.511902,1073.575439 992.880188,1075.880249 992.772095,1077.539551 
	C991.618225,1095.255615 976.367004,1109.791382 958.946899,1110.102661 
	C941.396301,1110.416260 926.000488,1096.529297 923.998657,1078.736694 
	C923.641174,1075.560059 924.339539,1073.486084 927.316956,1071.825439 
	C931.080750,1069.726440 934.522034,1067.045898 938.085876,1064.592163 
	C941.444275,1062.279785 942.839478,1059.219360 940.325867,1055.667358 
	C937.839294,1052.153564 934.508362,1052.380249 931.131897,1054.674316 
	C919.845947,1062.342407 908.552429,1069.999634 897.245544,1077.636841 
	C893.806213,1079.959839 892.784424,1082.969238 894.827637,1086.632812 
	C896.552490,1089.725342 900.231567,1090.060791 904.007324,1087.640381 
	C906.583679,1085.988892 909.105469,1084.252197 911.757874,1082.482788 
	C921.754883,1109.587280 935.721924,1121.586670 957.051819,1122.151489 
	C966.340576,1122.397583 974.906311,1120.163818 982.654419,1115.208618 
	C994.545837,1107.603516 1001.579773,1096.495728 1004.685181,1082.159424 
	C1007.812317,1084.295410 1010.316895,1086.162964 1012.973938,1087.780029 
	C1016.088013,1089.675415 1019.421021,1090.304565 1021.793762,1086.816650 
	C1024.161865,1083.335571 1023.227051,1080.242798 1019.710999,1077.861206 
	C1008.276733,1070.116333 996.864990,1062.338013 985.463013,1054.545654 
	C982.653809,1052.625854 979.760986,1052.304199 977.241455,1054.674805 
	C974.778198,1056.992554 974.430908,1059.863770 977.053528,1063.306274 
z"/>
<path fill="#FD7017" opacity="1.000000" stroke="none" 
	d="
M976.563782,518.862427 
	C972.674805,519.620605 968.351135,520.531433 963.981201,520.917664 
	C926.466492,524.233215 890.166260,533.098145 854.673523,545.304016 
	C821.872742,556.584167 790.921875,571.836853 761.363525,590.020508 
	C739.543335,603.443848 718.872864,618.488770 699.611816,635.238220 
	C679.304443,652.897522 659.783203,671.584412 643.429138,693.111267 
	C629.799866,711.051453 615.734253,728.841309 604.055115,748.032410 
	C591.482727,768.691223 580.632996,790.523621 570.550537,812.539551 
	C559.001343,837.758362 550.380188,864.199951 544.867004,891.435059 
	C540.904236,911.011414 537.348572,930.753662 535.220825,950.594421 
	C533.102966,970.342285 531.661011,990.351990 532.350281,1010.162415 
	C533.164978,1033.577759 536.147339,1056.955811 538.987732,1080.252563 
	C542.044800,1105.326782 548.890320,1129.599243 556.759644,1153.552490 
	C571.172180,1197.422607 591.587952,1238.378418 618.229431,1276.048218 
	C629.499756,1291.983887 641.924561,1307.177979 654.704407,1321.947998 
	C665.355164,1334.257324 676.811279,1345.972900 688.758240,1357.036255 
	C713.039551,1379.521362 739.572388,1399.107056 768.053833,1416.038086 
	C799.035339,1434.455444 831.556274,1449.451294 865.893005,1460.422485 
	C892.432922,1468.902466 919.403137,1475.593750 947.104492,1479.040283 
	C956.928833,1480.262695 966.763000,1481.405518 976.869873,1482.916260 
	C974.187012,1483.490845 971.219666,1484.011230 968.268250,1483.932983 
	C945.213196,1483.320557 922.029907,1483.877075 899.145203,1481.538452 
	C876.516418,1479.226196 854.190063,1473.954224 830.979370,1469.873901 
	C825.842896,1468.569824 821.458008,1467.372314 817.073059,1466.174805 
	C777.290283,1454.482544 739.378235,1438.454834 703.667908,1417.306274 
	C659.813843,1391.334839 620.995728,1359.283325 587.218323,1321.108398 
	C564.777954,1295.746704 545.186218,1268.360474 528.385254,1238.964111 
	C527.578003,1237.551880 526.427063,1236.335938 525.271484,1234.390869 
	C521.561401,1226.806885 518.016113,1219.860474 514.470764,1212.914185 
	C507.838379,1197.183838 500.620819,1181.670166 494.695526,1165.677856 
	C482.384491,1132.450439 474.379608,1098.138550 469.820923,1062.950317 
	C466.127228,1034.439209 464.869446,1005.832581 466.322205,977.225647 
	C470.235138,900.174072 491.355042,828.036133 529.673828,760.953064 
	C555.843262,715.139343 588.680176,674.734253 628.062195,639.765503 
	C678.685425,594.815247 736.320679,561.858459 800.823425,541.126160 
	C831.853333,531.152588 863.503296,523.677979 896.039368,521.080078 
	C917.907288,519.334167 939.884277,518.910950 961.819458,518.082153 
	C966.566772,517.902771 971.344116,518.520996 976.563782,518.862427 
z"/>
<path fill="#309B31" opacity="1.000000" stroke="none" 
	d="
M975.919617,312.722595 
	C969.977722,324.508514 964.810486,336.766510 957.963562,348.000885 
	C923.136292,405.144806 872.578979,441.022888 807.050964,453.473450 
	C738.051819,466.583588 675.680115,449.739197 620.963989,405.455597 
	C616.454346,401.805817 612.368774,397.632172 608.501465,393.346924 
	C624.771667,388.768372 640.629822,384.557465 656.480713,380.319061 
	C713.809875,364.989502 771.140198,349.664093 828.462952,334.310730 
	C868.013916,323.717438 907.559082,313.102051 947.094116,302.449646 
	C958.419373,299.398163 969.700500,296.183380 981.261230,293.245483 
	C979.653625,299.872528 977.786621,306.297577 975.919617,312.722595 
z"/>
<path fill="#50AD38" opacity="1.000000" stroke="none" 
	d="
M981.001892,293.043457 
	C969.700500,296.183380 958.419373,299.398163 947.094116,302.449646 
	C907.559082,313.102051 868.013916,323.717438 828.462952,334.310730 
	C771.140198,349.664093 713.809875,364.989502 656.480713,380.319061 
	C640.629822,384.557465 624.771667,388.768372 608.525024,393.006714 
	C615.237183,365.778168 627.794678,341.177124 644.800537,318.885468 
	C679.558777,273.323425 725.214050,244.623077 781.330627,233.527710 
	C834.550415,223.005096 885.362183,231.182343 932.858215,257.472931 
	C945.310608,264.365784 956.625488,273.313690 969.037781,281.600433 
	C973.409180,285.603180 977.205566,289.323334 981.001892,293.043457 
z"/>
<path fill="#CAECFC" opacity="1.000000" stroke="none" 
	d="
M1519.337036,1078.457153 
	C1515.480469,1076.611450 1511.727173,1074.494873 1507.745239,1072.978516 
	C1500.277954,1070.134766 1497.168579,1063.931274 1496.187744,1056.955688 
	C1494.046509,1041.727417 1492.771118,1026.379517 1490.956787,1011.102539 
	C1489.182251,996.160461 1487.114258,981.253479 1485.293945,966.316650 
	C1483.772705,953.835266 1482.476929,941.326538 1480.983032,928.841675 
	C1479.489990,916.363647 1477.834229,903.905090 1476.325317,891.428894 
	C1474.835449,879.110962 1473.481567,866.776489 1471.991455,854.458618 
	C1470.442505,841.655151 1468.775269,828.866028 1467.210449,816.064453 
	C1466.126343,807.197083 1465.105957,798.321838 1464.097290,789.445496 
	C1463.051392,780.241760 1462.053955,771.032593 1461.402710,761.444458 
	C1464.811646,762.994263 1467.638428,765.470276 1470.930054,766.766418 
	C1489.525146,774.088989 1509.082397,776.720947 1528.910645,777.977112 
	C1528.948975,777.906128 1529.104614,777.948547 1529.049316,778.417297 
	C1529.094482,801.974487 1529.153564,825.063232 1529.307373,848.151367 
	C1529.445435,868.903076 1529.687500,889.654114 1529.423706,910.414795 
	C1517.049927,910.424194 1505.136108,910.424194 1492.804443,910.424194 
	C1494.420898,924.079041 1495.906982,936.781494 1497.431519,949.479431 
	C1501.280518,981.535645 1505.011963,1013.606812 1509.062500,1045.637573 
	C1511.107422,1061.809082 1510.576294,1060.506714 1525.632935,1064.953247 
	C1543.077881,1070.104858 1561.089233,1070.709473 1579.102539,1069.899292 
	C1593.596924,1069.247192 1607.977417,1067.347290 1621.373413,1061.261597 
	C1623.282227,1060.394531 1625.458130,1058.078979 1625.799805,1056.133423 
	C1627.809448,1044.689087 1629.514160,1033.180664 1630.945801,1021.647217 
	C1634.594971,992.250732 1638.055908,962.830811 1641.568115,933.417419 
	C1642.463745,925.916870 1643.269043,918.405457 1644.153320,910.565186 
	C1641.320557,910.565186 1639.332886,910.570984 1637.345093,910.564392 
	C1608.023560,910.466309 1578.702026,910.366577 1549.323730,909.778809 
	C1549.178955,892.797974 1549.183350,876.304626 1548.982544,859.813660 
	C1548.654175,832.841431 1548.192017,805.870850 1547.881592,778.881042 
	C1547.976685,778.862549 1548.067505,779.033691 1548.513062,779.024780 
	C1553.244995,779.341919 1557.550537,780.105347 1561.814453,779.918213 
	C1580.341309,779.105225 1598.906128,778.564453 1617.361694,776.878662 
	C1637.713989,775.019714 1658.317627,773.313538 1675.906616,760.957947 
	C1674.769775,771.311768 1673.688232,781.671997 1672.481812,792.017761 
	C1671.044922,804.339172 1669.495483,816.647461 1668.005005,828.962646 
	C1666.455200,841.768921 1664.908569,854.575500 1663.377441,867.383972 
	C1662.238647,876.911316 1661.139771,886.443481 1659.999634,895.970703 
	C1658.466797,908.779175 1656.891724,921.582642 1655.371338,934.392578 
	C1653.889526,946.877808 1652.469849,959.370300 1650.993408,971.856140 
	C1649.536621,984.176331 1648.052002,996.493164 1646.562378,1008.809387 
	C1645.053101,1021.288208 1643.640015,1033.780273 1641.951538,1046.234985 
	C1641.115967,1052.396973 1640.520386,1058.779907 1638.336914,1064.497925 
	C1637.091797,1067.758179 1633.298584,1071.048950 1629.906006,1072.297607 
	C1619.694092,1076.056030 1609.299561,1079.972290 1598.632935,1081.670166 
	C1586.254639,1083.640625 1573.509766,1083.870728 1560.928711,1083.815186 
	C1551.882690,1083.775391 1542.844482,1082.028809 1533.011719,1080.954590 
	C1527.926270,1080.062744 1523.631592,1079.260010 1519.337036,1078.457153 
z"/>
<path fill="#643517" opacity="1.000000" stroke="none" 
	d="
M981.261230,293.245483 
	C977.205566,289.323334 973.409180,285.603180 969.402161,281.681458 
	C960.086121,241.797607 948.375977,203.092133 926.916504,168.003220 
	C924.582397,164.186646 922.559753,160.158707 920.653442,156.106140 
	C917.656311,149.734421 918.478699,143.663116 923.247620,138.504288 
	C935.217163,125.556122 949.043274,114.919266 964.666809,106.767509 
	C971.380432,103.264618 975.737427,104.429703 979.453430,111.776672 
	C986.414612,125.539833 993.232666,139.462952 998.801636,153.826889 
	C1018.380371,204.325760 1031.082275,256.604980 1036.727051,310.473969 
	C1042.701416,367.490875 1043.257446,424.561615 1035.734863,481.506775 
	C1033.864868,495.662415 1030.671265,509.643188 1028.126587,524.048828 
	C1024.090576,536.973083 1020.014282,549.552856 1015.483398,562.450439 
	C1006.691040,561.504944 998.353149,560.241760 990.015381,558.978516 
	C990.101440,546.264465 990.187500,533.550354 990.231506,520.357483 
	C990.399902,517.913330 990.821350,515.944580 990.789490,513.983154 
	C990.204102,477.925415 991.010620,441.767303 988.496582,405.842194 
	C986.334473,374.945953 980.369690,344.315796 976.002991,313.145294 
	C977.786621,306.297577 979.653625,299.872528 981.261230,293.245483 
z"/>
<path fill="#1A0101" opacity="1.000000" stroke="none" 
	d="
M1067.915527,1470.324951 
	C1072.234619,1468.609253 1076.586792,1467.376343 1081.313965,1466.108643 
	C1083.122559,1489.019775 1079.658691,1511.508057 1075.123535,1533.687988 
	C1088.225464,1535.150879 1101.119019,1536.289673 1113.918457,1538.096191 
	C1129.705811,1540.324463 1145.675293,1542.259888 1159.990601,1550.083496 
	C1175.794312,1558.720703 1181.609497,1573.302979 1176.514771,1590.608765 
	C1169.821411,1613.345215 1145.838501,1627.799316 1120.387695,1624.590454 
	C1102.400879,1622.322510 1087.398682,1613.604736 1073.483643,1602.793213 
	C1062.539795,1594.290039 1052.330200,1584.907959 1045.495850,1572.562744 
	C1036.930542,1557.090820 1041.151123,1545.044434 1057.302612,1537.713867 
	C1058.810059,1537.029663 1060.463257,1535.207031 1060.807495,1533.640503 
	C1065.351807,1512.952271 1068.859619,1492.124023 1067.915527,1470.324951 
z"/>
<path fill="#1A0101" opacity="1.000000" stroke="none" 
	d="
M817.049072,1466.628906 
	C821.458008,1467.372314 825.842896,1468.569824 830.574402,1469.914795 
	C829.953369,1491.693726 833.279541,1512.857422 838.122314,1533.821289 
	C838.495483,1535.436401 840.487488,1537.176270 842.146606,1537.911987 
	C850.647339,1541.681396 857.134338,1547.354736 857.250366,1557.084961 
	C857.310608,1562.136230 855.758545,1567.747925 853.288696,1572.191528 
	C843.995239,1588.911499 829.530823,1600.660034 813.723389,1610.832642 
	C802.875122,1617.813843 791.286194,1622.992798 778.278381,1624.607178 
	C751.776917,1627.896606 727.405823,1612.248169 721.655029,1588.088867 
	C717.605591,1571.077148 724.684265,1556.571045 740.505737,1548.959961 
	C754.543884,1542.206665 769.761047,1540.306274 784.859863,1538.107422 
	C797.656067,1536.244263 810.562622,1535.139404 823.718140,1533.665405 
	C819.020569,1511.845093 815.989197,1489.659424 817.049072,1466.628906 
z"/>
<path fill="#1A0101" opacity="1.000000" stroke="none" 
	d="
M514.081177,1212.741211 
	C518.016113,1219.860474 521.561401,1226.806885 525.063599,1234.158203 
	C494.099426,1217.650513 463.586639,1200.122803 435.176575,1179.092651 
	C399.735596,1152.857910 377.132446,1117.930054 364.017242,1076.334351 
	C363.767853,1075.543457 363.526123,1074.749512 363.252014,1073.967163 
	C363.144073,1073.659180 362.957031,1073.378784 362.802368,1073.088135 
	C341.657166,1073.652100 331.193298,1060.032715 323.903595,1043.011475 
	C317.233521,1027.437012 315.588196,1011.211121 321.035156,994.791321 
	C326.007904,979.801025 337.342316,971.714905 350.313934,973.952209 
	C358.748413,975.406921 365.136627,980.494934 370.635406,986.695068 
	C372.807068,989.143799 374.670044,990.419922 378.394196,990.521667 
	C382.391418,990.630920 386.990234,992.439514 390.165741,994.965698 
	C407.785522,1008.982483 408.450287,1045.451050 391.411835,1060.005493 
	C388.699402,1062.322510 384.747955,1063.608643 381.156830,1064.372437 
	C376.566803,1065.348633 375.256317,1066.425171 376.620331,1070.848145 
	C388.170441,1108.300415 407.465149,1140.622070 438.928162,1164.914551 
	C462.420288,1183.052856 487.750427,1198.284058 514.081177,1212.741211 
z"/>
<path fill="#B0E1F7" opacity="1.000000" stroke="none" 
	d="
M1675.947876,760.590088 
	C1658.317627,773.313538 1637.713989,775.019714 1617.361694,776.878662 
	C1598.906128,778.564453 1580.341309,779.105225 1561.814453,779.918213 
	C1557.550537,780.105347 1553.244995,779.341919 1548.435059,778.559265 
	C1547.771240,763.717590 1547.630981,749.332581 1547.490601,734.947571 
	C1554.771851,734.644836 1562.058838,733.987427 1569.333496,734.102783 
	C1596.321533,734.530640 1623.285400,735.750854 1649.647827,742.112854 
	C1657.283569,743.955566 1664.580688,747.335693 1671.883667,750.370789 
	C1676.170044,752.152222 1677.430664,755.764526 1675.947876,760.590088 
z"/>
<path fill="#EF0682" opacity="1.000000" stroke="none" 
	d="
M1547.382202,734.495117 
	C1547.630981,749.332581 1547.771240,763.717590 1547.989502,778.568115 
	C1548.067505,779.033691 1547.976685,778.862549 1547.430542,778.916870 
	C1540.957764,778.630371 1535.031250,778.289429 1529.104614,777.948547 
	C1529.104614,777.948547 1528.948975,777.906128 1528.962158,777.507812 
	C1528.731934,763.396240 1528.488403,749.682922 1528.245117,735.969666 
	C1527.962524,721.349915 1527.653687,706.730591 1527.421021,692.110046 
	C1527.377686,689.383911 1526.136963,688.185974 1523.561157,687.283691 
	C1507.585449,681.687744 1491.675293,675.903625 1475.762573,670.129150 
	C1469.943848,668.017578 1467.387329,663.366882 1469.016235,658.163330 
	C1470.575317,653.183105 1475.968506,650.502869 1481.607666,652.462463 
	C1499.005005,658.508118 1516.319214,664.793213 1533.680298,670.943604 
	C1542.301758,673.997925 1545.516602,680.910400 1545.926880,689.169434 
	C1546.669312,704.112549 1546.855469,719.083374 1547.382202,734.495117 
z"/>
<path fill="#1C0201" opacity="1.000000" stroke="none" 
	d="
M1519.273926,1078.814209 
	C1523.631592,1079.260010 1527.926270,1080.062744 1532.595459,1080.947998 
	C1518.641968,1127.082886 1490.451904,1162.762939 1450.284180,1188.701660 
	C1425.338501,1204.810547 1399.288208,1219.208618 1373.368774,1234.245239 
	C1376.589233,1227.301636 1380.174683,1220.487549 1384.177979,1213.308350 
	C1384.768066,1212.645874 1384.940186,1212.348511 1385.112305,1212.051025 
	C1385.112305,1212.051025 1385.009033,1212.090088 1385.021973,1212.143677 
	C1396.701660,1205.552368 1408.475220,1199.086792 1420.011108,1192.221802 
	C1438.638794,1181.136230 1456.441162,1168.843140 1472.384155,1154.078003 
	C1494.749268,1133.365234 1509.639282,1107.914673 1519.273926,1078.814209 
z"/>
<path fill="#B0E1F7" opacity="1.000000" stroke="none" 
	d="
M1527.789551,735.979492 
	C1528.488403,749.682922 1528.731934,763.396240 1528.923828,777.578796 
	C1509.082397,776.720947 1489.525146,774.088989 1470.930054,766.766418 
	C1467.638428,765.470276 1464.811646,762.994263 1461.432373,761.010376 
	C1459.178955,756.291199 1460.737793,752.363647 1464.975464,750.571533 
	C1473.004639,747.176025 1481.173950,743.681335 1489.635864,741.842407 
	C1502.040039,739.146667 1514.752808,737.870422 1527.789551,735.979492 
z"/>
<path fill="#1C0201" opacity="1.000000" stroke="none" 
	d="
M1372.631714,1234.842773 
	C1372.479370,1234.661987 1372.642334,1234.448120 1372.967773,1234.101196 
	C1373.020630,1234.211670 1372.959473,1234.492188 1372.631714,1234.842773 
z"/>
<path fill="#FF9775" opacity="1.000000" stroke="none" 
	d="
M791.969421,1091.151245 
	C799.181702,1101.671631 803.773987,1113.297852 803.720459,1126.032471 
	C803.663635,1139.563110 799.978394,1152.411255 791.175110,1163.064697 
	C779.023926,1177.769409 763.574585,1186.103516 744.070007,1186.014404 
	C715.248718,1185.882935 690.820251,1164.845459 685.933350,1136.220337 
	C680.703918,1105.588257 700.971252,1073.387329 737.094971,1068.123535 
	C740.685913,1067.600342 744.410889,1067.996826 748.820557,1068.140869 
	C759.647583,1083.454346 773.812073,1091.009766 791.969421,1091.151245 
z"/>
<path fill="#FF9775" opacity="1.000000" stroke="none" 
	d="
M1154.518799,1067.740845 
	C1170.593506,1068.279663 1184.872803,1073.446533 1196.305664,1084.965698 
	C1207.272827,1096.015381 1213.557861,1109.653442 1213.780151,1125.151978 
	C1214.212402,1155.272217 1193.751953,1179.620483 1164.312134,1185.061401 
	C1133.467407,1190.762085 1100.497192,1168.813110 1095.826416,1134.947510 
	C1093.596436,1118.778809 1098.308472,1104.826660 1107.396729,1091.233521 
	C1127.918823,1092.043701 1143.336914,1084.154663 1154.518799,1067.740845 
z"/>
<path fill="#1C0201" opacity="1.000000" stroke="none" 
	d="
M792.392578,1091.065674 
	C773.812073,1091.009766 759.647583,1083.454346 749.285889,1068.123535 
	C744.041077,1058.680908 741.445129,1048.848877 742.138611,1037.596313 
	C736.330872,1037.596313 730.910034,1037.596313 725.489258,1037.596313 
	C722.324951,1037.596313 719.160583,1037.604736 715.996277,1037.594604 
	C709.794556,1037.574585 706.918030,1035.642334 706.945679,1031.530029 
	C706.973450,1027.395142 709.870911,1025.418457 715.979858,1025.406738 
	C722.974670,1025.393311 729.990784,1025.066406 736.957825,1025.506348 
	C742.932434,1025.883667 747.526855,1025.075073 748.184448,1017.207031 
	C741.569336,1008.526733 734.436401,999.167114 727.303833,989.807190 
	C726.597778,988.880554 725.872131,987.967834 725.194336,987.020935 
	C722.849548,983.745178 722.411316,980.361450 725.935608,977.820923 
	C729.356873,975.354797 732.453918,976.486206 734.948181,979.797180 
	C741.357544,988.305115 747.837280,996.760132 754.299316,1005.228271 
	C754.985474,1006.127502 755.740723,1006.973877 756.466248,1007.847534 
	C777.175232,989.880371 800.442078,991.317505 816.981262,1002.081299 
	C834.582458,1013.536133 842.652466,1034.523315 837.520813,1054.291992 
	C832.149658,1074.983032 814.535828,1089.438232 792.392578,1091.065674 
M782.191162,1007.449524 
	C774.683105,1010.728943 769.902771,1017.377380 770.151367,1024.682983 
	C770.417603,1032.505981 774.117676,1038.503296 781.300537,1041.540039 
	C788.401306,1044.541992 795.325500,1043.458496 801.168823,1038.093506 
	C807.233215,1032.525879 808.756226,1023.297058 804.947571,1016.208679 
	C800.623413,1008.160828 793.030151,1005.042297 782.191162,1007.449524 
M790.773926,1075.146240 
	C796.014465,1074.153564 798.929382,1070.714233 799.716797,1065.728760 
	C800.413696,1061.316406 798.704163,1057.565186 794.851685,1055.043823 
	C790.452271,1052.164429 786.079407,1052.452148 781.821289,1055.383911 
	C778.143066,1057.916382 776.495911,1063.294922 777.969055,1067.804565 
	C779.583008,1072.745239 783.583313,1075.215942 790.773926,1075.146240 
z"/>
<path fill="#1C0201" opacity="1.000000" stroke="none" 
	d="
M1154.652588,1067.405151 
	C1143.336914,1084.154663 1127.918823,1092.043701 1107.539673,1090.914795 
	C1095.126831,1088.342285 1084.296753,1083.664673 1076.298950,1073.904053 
	C1064.447144,1059.439819 1061.255005,1043.105713 1067.757690,1025.709839 
	C1074.250122,1008.341614 1087.240723,997.943665 1105.743042,994.891846 
	C1121.461060,992.299316 1134.876709,997.316284 1147.130249,1007.983948 
	C1153.667480,999.462769 1160.116211,991.058105 1166.562744,982.651917 
	C1167.474487,981.462952 1168.350830,980.246155 1169.286377,979.076416 
	C1171.671631,976.093933 1174.686646,975.681396 1177.628296,977.817078 
	C1180.635254,980.000183 1181.015259,983.217651 1178.889282,986.200439 
	C1174.833008,991.891174 1170.525024,997.403320 1166.290039,1002.965515 
	C1163.264038,1006.939575 1160.351074,1011.018127 1157.070312,1014.772827 
	C1155.088013,1017.041382 1155.330811,1018.751343 1156.479614,1021.336365 
	C1157.894165,1024.519165 1159.589111,1025.644531 1163.141235,1025.508667 
	C1171.624756,1025.184326 1180.129395,1025.369019 1188.625000,1025.417480 
	C1193.723755,1025.446533 1196.763428,1027.807007 1196.751831,1031.557617 
	C1196.740234,1035.304932 1193.752197,1037.557251 1188.541260,1037.583618 
	C1179.741577,1037.628174 1170.941650,1037.595825 1161.594604,1037.595825 
	C1161.735596,1048.248413 1160.179443,1058.145874 1154.652588,1067.405151 
M1101.119385,1012.657471 
	C1094.339355,1021.873535 1095.365479,1032.548096 1103.667969,1039.169312 
	C1111.205688,1045.180664 1122.325806,1044.130005 1128.769043,1036.797729 
	C1135.296265,1029.369873 1134.745361,1018.361694 1127.488770,1011.215576 
	C1120.437378,1004.271545 1109.457031,1004.651001 1101.119385,1012.657471 
M1104.908691,1069.173462 
	C1109.217041,1075.446533 1115.672729,1077.251953 1121.002686,1073.674316 
	C1126.409302,1070.045166 1127.756592,1063.461792 1124.216675,1057.969360 
	C1121.422241,1053.633545 1115.506104,1051.918213 1110.625244,1054.028931 
	C1104.884033,1056.511475 1102.941772,1061.119873 1104.908691,1069.173462 
z"/>
<path fill="#FD7017" opacity="1.000000" stroke="none" 
	d="
M989.565308,558.983521 
	C998.353149,560.241760 1006.691040,561.504944 1015.392517,562.812927 
	C1025.804199,566.379272 1034.935303,571.221497 1040.973511,580.474365 
	C1046.264893,588.582825 1044.920776,600.066223 1038.349609,607.233521 
	C1026.912598,619.708191 1012.238647,624.124268 995.998047,625.015930 
	C980.591309,625.861816 965.798706,623.840454 952.349426,615.667603 
	C944.439209,610.860718 938.234802,604.756958 936.793884,594.977417 
	C935.839844,588.502258 937.489685,582.768738 941.635620,577.956665 
	C951.370178,566.657898 964.190063,561.464233 978.747681,559.995850 
	C982.202271,559.647339 985.659424,559.323669 989.565308,558.983521 
z"/>
<path fill="#1C0201" opacity="1.000000" stroke="none" 
	d="
M976.805481,1063.032104 
	C974.430908,1059.863770 974.778198,1056.992554 977.241455,1054.674805 
	C979.760986,1052.304199 982.653809,1052.625854 985.463013,1054.545654 
	C996.864990,1062.338013 1008.276733,1070.116333 1019.710999,1077.861206 
	C1023.227051,1080.242798 1024.161865,1083.335571 1021.793762,1086.816650 
	C1019.421021,1090.304565 1016.088013,1089.675415 1012.973938,1087.780029 
	C1010.316895,1086.162964 1007.812317,1084.295410 1004.685181,1082.159424 
	C1001.579773,1096.495728 994.545837,1107.603516 982.654419,1115.208618 
	C974.906311,1120.163818 966.340576,1122.397583 957.051819,1122.151489 
	C935.721924,1121.586670 921.754883,1109.587280 911.757874,1082.482788 
	C909.105469,1084.252197 906.583679,1085.988892 904.007324,1087.640381 
	C900.231567,1090.060791 896.552490,1089.725342 894.827637,1086.632812 
	C892.784424,1082.969238 893.806213,1079.959839 897.245544,1077.636841 
	C908.552429,1069.999634 919.845947,1062.342407 931.131897,1054.674316 
	C934.508362,1052.380249 937.839294,1052.153564 940.325867,1055.667358 
	C942.839478,1059.219360 941.444275,1062.279785 938.085876,1064.592163 
	C934.522034,1067.045898 931.080750,1069.726440 927.316956,1071.825439 
	C924.339539,1073.486084 923.641174,1075.560059 923.998657,1078.736694 
	C926.000488,1096.529297 941.396301,1110.416260 958.946899,1110.102661 
	C976.367004,1109.791382 991.618225,1095.255615 992.772095,1077.539551 
	C992.880188,1075.880249 991.511902,1073.575439 990.116272,1072.470947 
	C985.952454,1069.175415 981.433655,1066.328491 976.805481,1063.032104 
z"/>
<path fill="#FFFFFF" opacity="1.000000" stroke="none" 
	d="
M1384.805908,1211.986816 
	C1384.940186,1212.348511 1384.768066,1212.645874 1384.305420,1212.990845 
	C1384.176514,1212.666382 1384.338013,1212.294434 1384.805908,1211.986816 
z"/>
<path fill="#FF9204" opacity="1.000000" stroke="none" 
	d="
M1549.380493,910.267273 
	C1578.702026,910.366577 1608.023560,910.466309 1637.345093,910.564392 
	C1639.332886,910.570984 1641.320557,910.565186 1644.153320,910.565186 
	C1643.269043,918.405457 1642.463745,925.916870 1641.568115,933.417419 
	C1638.055908,962.830811 1634.594971,992.250732 1630.945801,1021.647217 
	C1629.514160,1033.180664 1627.809448,1044.689087 1625.799805,1056.133423 
	C1625.458130,1058.078979 1623.282227,1060.394531 1621.373413,1061.261597 
	C1607.977417,1067.347290 1593.596924,1069.247192 1579.102539,1069.899292 
	C1561.089233,1070.709473 1543.077881,1070.104858 1525.632935,1064.953247 
	C1510.576294,1060.506714 1511.107422,1061.809082 1509.062500,1045.637573 
	C1505.011963,1013.606812 1501.280518,981.535645 1497.431519,949.479431 
	C1495.906982,936.781494 1494.420898,924.079041 1492.804443,910.424194 
	C1505.136108,910.424194 1517.049927,910.424194 1529.477539,910.848511 
	C1530.326294,930.555969 1530.675903,949.838928 1530.988892,969.122437 
	C1531.100708,976.015259 1534.514404,979.974915 1540.489380,980.002563 
	C1546.374878,980.029785 1550.030396,975.946899 1549.976196,969.119568 
	C1549.820557,949.501831 1549.584839,929.884644 1549.380493,910.267273 
z"/>
<path fill="#E8559E" opacity="1.000000" stroke="none" 
	d="
M1549.323730,909.778809 
	C1549.584839,929.884644 1549.820557,949.501831 1549.976196,969.119568 
	C1550.030396,975.946899 1546.374878,980.029785 1540.489380,980.002563 
	C1534.514404,979.974915 1531.100708,976.015259 1530.988892,969.122437 
	C1530.675903,949.838928 1530.326294,930.555969 1529.937500,910.839111 
	C1529.687500,889.654114 1529.445435,868.903076 1529.307373,848.151367 
	C1529.153564,825.063232 1529.094482,801.974487 1529.049316,778.417297 
	C1535.031250,778.289429 1540.957764,778.630371 1547.335449,778.935425 
	C1548.192017,805.870850 1548.654175,832.841431 1548.982544,859.813660 
	C1549.183350,876.304626 1549.178955,892.797974 1549.323730,909.778809 
z"/>
<path fill="#FFFFFF" opacity="1.000000" stroke="none" 
	d="
M782.558716,1007.307007 
	C793.030151,1005.042297 800.623413,1008.160828 804.947571,1016.208679 
	C808.756226,1023.297058 807.233215,1032.525879 801.168823,1038.093506 
	C795.325500,1043.458496 788.401306,1044.541992 781.300537,1041.540039 
	C774.117676,1038.503296 770.417603,1032.505981 770.151367,1024.682983 
	C769.902771,1017.377380 774.683105,1010.728943 782.558716,1007.307007 
z"/>
<path fill="#FFFFFF" opacity="1.000000" stroke="none" 
	d="
M790.401855,1075.199829 
	C783.583313,1075.215942 779.583008,1072.745239 777.969055,1067.804565 
	C776.495911,1063.294922 778.143066,1057.916382 781.821289,1055.383911 
	C786.079407,1052.452148 790.452271,1052.164429 794.851685,1055.043823 
	C798.704163,1057.565186 800.413696,1061.316406 799.716797,1065.728760 
	C798.929382,1070.714233 796.014465,1074.153564 790.401855,1075.199829 
z"/>
<path fill="#FFFFFF" opacity="1.000000" stroke="none" 
	d="
M1101.358032,1012.383850 
	C1109.457031,1004.651001 1120.437378,1004.271545 1127.488770,1011.215576 
	C1134.745361,1018.361694 1135.296265,1029.369873 1128.769043,1036.797729 
	C1122.325806,1044.130005 1111.205688,1045.180664 1103.667969,1039.169312 
	C1095.365479,1032.548096 1094.339355,1021.873535 1101.358032,1012.383850 
z"/>
<path fill="#FFFFFF" opacity="1.000000" stroke="none" 
	d="
M1104.724365,1068.820068 
	C1102.941772,1061.119873 1104.884033,1056.511475 1110.625244,1054.028931 
	C1115.506104,1051.918213 1121.422241,1053.633545 1124.216675,1057.969360 
	C1127.756592,1063.461792 1126.409302,1070.045166 1121.002686,1073.674316 
	C1115.672729,1077.251953 1109.217041,1075.446533 1104.724365,1068.820068 
z"/>
</svg>